HIERARCHY
ROOT Hips
{
  OFFSET 49.0495 95.1905 -22.7928
  CHANNELS 6 Xposition Yposition Zposition Zrotation Xrotation Yrotation
  JOINT spine
  {
    OFFSET 0 7.96568 0.458067
    CHANNELS 3 Zrotation Xrotation Yrotation
    JOINT spine1
    {
      OFFSET 0 10.2431 0
      CHANNELS 3 Zrotation Xrotation Yrotation
      JOINT spine2
      {
        OFFSET 0 9.81475 0
        CHANNELS 3 Zrotation Xrotation Yrotation
        JOINT Neck
        {
          OFFSET 0 25.1986 1.20138
          CHANNELS 3 Zrotation Xrotation Yrotation
          JOINT Head
          {
            OFFSET 0 7.61315 0
            CHANNELS 3 Zrotation Xrotation Yrotation
            End Site
            {
              OFFSET 0 18.4281 -6.07733
            }
          }
        }
        JOINT RightShoulder
        {
          OFFSET -4.1327 10.5992 -0.575451
          CHANNELS 3 Zrotation Xrotation Yrotation
          JOINT RightArm
          {
            OFFSET 0 13.9018 0
            CHANNELS 3 Zrotation Xrotation Yrotation
            JOINT RightArmRoll
            {
              OFFSET 0 7.01788 0
              CHANNELS 3 Zrotation Xrotation Yrotation
              JOINT RightForeArm
              {
                OFFSET 0 20.4406 0
                CHANNELS 3 Zrotation Xrotation Yrotation
                JOINT RightForeArmRoll
                {
                  OFFSET 0 7.87515 0
                  CHANNELS 3 Zrotation Xrotation Yrotation
                  JOINT RightHand
                  {
                    OFFSET 0 15.8037 0
                    CHANNELS 3 Zrotation Xrotation Yrotation
                    End Site
                    {
                      OFFSET 0 0 0
                    }
                  }
                }
              }
            }
          }
        }
        JOINT LeftShoulder
        {
          OFFSET 4.1327 10.5992 -0.575451
          CHANNELS 3 Zrotation Xrotation Yrotation
          JOINT LeftArm
          {
            OFFSET 0 13.9018 0
            CHANNELS 3 Zrotation Xrotation Yrotation
            JOINT LeftArmRoll
            {
              OFFSET 0 7.01789 0
              CHANNELS 3 Zrotation Xrotation Yrotation
              JOINT LeftForeArm
              {
                OFFSET 0 20.4406 0
                CHANNELS 3 Zrotation Xrotation Yrotation
                JOINT LeftForeArmRoll
                {
                  OFFSET 0 7.87515 0
                  CHANNELS 3 Zrotation Xrotation Yrotation
                  JOINT LeftHand
                  {
                    OFFSET 0 15.8037 0
                    CHANNELS 3 Zrotation Xrotation Yrotation
                    End Site
                    {
                      OFFSET 0 0 0
                    }
                  }
                }
              }
            }
          }
        }
      }
    }
  }
  JOINT RightUpLeg
  {
    OFFSET -7.06048 -1.2947 -1.0861
    CHANNELS 3 Zrotation Xrotation Yrotation
    JOINT RightUpLegRoll
    {
      OFFSET 0 18.5308 0
      CHANNELS 3 Zrotation Xrotation Yrotation
      JOINT RightLeg
      {
        OFFSET 0 -22.9476 0
        CHANNELS 3 Zrotation Xrotation Yrotation
        JOINT RightLegRoll
        {
          OFFSET 0 23.0226 0
          CHANNELS 3 Zrotation Xrotation Yrotation
          JOINT RightFoot
          {
            OFFSET 0 19.1625 0
            CHANNELS 3 Zrotation Xrotation Yrotation
            JOINT RightToeBase
            {
              OFFSET 0 16.0188 0
              CHANNELS 3 Zrotation Xrotation Yrotation
              End Site
              {
                OFFSET 0.00678979 7.75781 -0.894207
              }
            }
          }
        }
      }
    }
  }
  JOINT LeftUpLeg
  {
    OFFSET 7.06048 -1.2947 -1.0861
    CHANNELS 3 Zrotation Xrotation Yrotation
    JOINT LeftUpLegRoll
    {
      OFFSET 0 18.5309 0
      CHANNELS 3 Zrotation Xrotation Yrotation
      JOINT LeftLeg
      {
        OFFSET 0 22.9475 0
        CHANNELS 3 Zrotation Xrotation Yrotation
        JOINT LeftLegRoll
        {
          OFFSET 0 23.2355 0
          CHANNELS 3 Zrotation Xrotation Yrotation
          JOINT LeftFoot
          {
            OFFSET 0 18.9496 0
            CHANNELS 3 Zrotation Xrotation Yrotation
            JOINT LeftToeBase
            {
              OFFSET 0 16.0188 0
              CHANNELS 3 Zrotation Xrotation Yrotation
              End Site
              {
                OFFSET -0.0304289 7.75782 -0.894207
              }
            }
          }
        }
      }
    }
  }
}
MOTION
Frames: 12
Frame Time: 0.00208333
49.4367 95.6037 11.76 -1.60602 -3.28737 -0.60079 0.418055 -1.54963 0.0198607 0.841397 0.902879 -0.00243469 0.842014 2.54785 -0.0165694 1.57476 20.5138 -1.15665 -1.11463 -2.62096 -0.778734 70.3829 1.73494 -0.539652 100.496 19.2188 22.7781 1.96748e-006 -1.63413e-006 7.68102e-007 2.48382 0.0229626 -0.372411 -7.47495e-006 2.2016e-006 -3.0794 8.02999 -4.95139 0.697649 -68.6731 0.204106 1.08169 -104.084 18.0991 -21.3492 -1.11941e-006 4.39483e-006 -3.96284e-006 -0.336973 0.948104 -0.41654 7.53683e-007 1.58095e-007 3.00795 -8.03025 -4.95138 -0.697638 176.863 -5.06332 -2.06158 180 7.01503e-015 178.747 177.354 5.61711 179.621 2.08625e-006 -3.52112e-006 0.102461 -19.7525 69.0505 20.4468 8.17111 25.897 -2.59189 -172.682 -2.14699 -0.647625 4.5067e-006 -1.99009e-005 -1.21637 -1.95611 -9.86573 0.113677 5.31032e-007 -5.43449e-006 -0.274624 22.1636 71.4855 -22.9982 -8.13128 25.3339 3.34833 
49.4374 95.5997 11.7686 -1.60578 -3.29002 -0.598858 0.417068 -1.54755 0.0197485 0.839303 0.906451 -0.00217738 0.839903 2.55142 -0.0162785 1.59262 20.5024 -1.16507 -1.13217 -2.60871 -0.783514 70.3924 1.7241 -0.546082 100.484 19.2242 22.7705 1.96748e-006 -1.63413e-006 7.68102e-007 2.49446 0.0229624 -0.372811 -7.47495e-006 2.2016e-006 -3.07927 8.02999 -4.95139 0.697649 -68.6435 0.203368 1.07864 -104.111 18.1156 -21.3608 -1.11941e-006 4.39483e-006 -3.96284e-006 -0.30312 0.903718 -0.417744 7.53683e-007 1.58095e-007 3.00793 -8.03025 -4.95138 -0.697638 176.862 -5.0629 -2.05585 180 7.01503e-015 178.747 177.348 5.63138 179.622 2.08625e-006 -3.52112e-006 0.10257 -19.7569 69.0556 20.4521 8.17119 25.8982 -2.58944 -172.683 -2.14434 -0.645916 4.5067e-006 -1.99009e-005 -1.21637 -1.95249 -9.87974 0.113877 5.31032e-007 -5.43449e-006 -0.27557 22.1697 71.4909 -23.0046 -8.13134 25.3347 3.34662 
49.4365 95.5974 11.7747 -1.60558 -3.29241 -0.597071 0.416038 -1.54551 0.0196716 0.837133 0.909902 -0.00182092 0.837713 2.55487 -0.0158873 1.61172 20.4904 -1.17385 -1.15075 -2.59606 -0.788376 70.4032 1.71288 -0.55288 100.471 19.2308 22.7627 1.96748e-006 -1.63413e-006 7.68102e-007 2.50562 0.0229622 -0.373363 -7.47495e-006 2.2016e-006 -3.07915 8.02999 -4.95139 0.697649 -68.6133 0.20251 1.07558 -104.14 18.132 -21.3713 -1.11941e-006 4.39483e-006 -3.96284e-006 -0.26991 0.858433 -0.418993 7.53683e-007 1.58095e-007 3.00791 -8.03025 -4.95138 -0.697638 176.86 -5.0623 -2.04994 180 7.01503e-015 178.747 177.343 5.64525 179.623 2.08625e-006 -3.52112e-006 0.102647 -19.761 69.0603 20.4571 8.17127 25.8993 -2.58699 -172.683 -2.14127 -0.64417 4.5067e-006 -1.99009e-005 -1.21637 -1.94882 -9.89388 0.114066 5.31032e-007 -5.43449e-006 -0.276547 22.1758 71.4962 -23.0109 -8.13139 25.3355 3.34489 
49.4342 95.6006 11.7815 -1.6054 -3.29463 -0.595386 0.414978 -1.5435 0.0196194 0.834911 0.913267 -0.00139503 0.835469 2.55824 -0.0154258 1.63169 20.4781 -1.18288 -1.17006 -2.58314 -0.793294 70.4151 1.70139 -0.559935 100.457 19.2382 22.7547 1.96748e-006 -1.63413e-006 7.68102e-007 2.51715 0.022962 -0.374021 -7.47495e-006 2.2016e-006 -3.07904 8.02999 -4.95139 0.697649 -68.5827 0.20157 1.07253 -104.17 18.1484 -21.3811 -1.11941e-006 4.39483e-006 -3.96284e-006 -0.237151 0.812519 -0.420273 7.53683e-007 1.58095e-007 3.00788 -8.03025 -4.95138 -0.697638 176.858 -5.06156 -2.0439 180 7.01503e-015 178.747 177.337 5.65884 179.624 2.08625e-006 -3.52112e-006 0.102702 -19.765 69.0647 20.4619 8.17134 25.9003 -2.58454 -172.683 -2.1379 -0.642398 4.5067e-006 -1.99009e-005 -1.21637 -1.94511 -9.90811 0.114248 5.31032e-007 -5.43449e-006 -0.277545 22.1819 71.5015 -23.0172 -8.13144 25.3363 3.34314 
49.4311 95.5982 11.7879 -1.60524 -3.29674 -0.593758 0.4139 -1.54151 0.0195812 0.832657 0.916584 -0.000929482 0.833194 2.56156 -0.0149242 1.65216 20.4655 -1.19205 -1.18978 -2.57006 -0.798245 70.4275 1.68974 -0.567137 100.442 19.2461 22.7466 1.96748e-006 -1.63413e-006 7.68102e-007 2.52887 0.0229618 -0.37474 -7.47495e-006 2.2016e-006 -3.07894 8.02999 -4.95139 0.697649 -68.5518 0.200582 1.06947 -104.199 18.1648 -21.3905 -1.11941e-006 4.39483e-006 -3.96284e-006 -0.20465 0.766245 -0.421571 7.53683e-007 1.58095e-007 3.00785 -8.03025 -4.95138 -0.697638 176.856 -5.06074 -2.03779 180 7.01503e-015 178.747 177.331 5.67229 179.624 2.08625e-006 -3.52112e-006 0.102744 -19.7687 69.0691 20.4666 8.17142 25.9014 -2.58209 -172.683 -2.13436 -0.640613 4.5067e-006 -1.99009e-005 -1.21637 -1.94139 -9.92239 0.114426 5.31032e-007 -5.43449e-006 -0.278556 22.188 71.5067 -23.0234 -8.13149 25.337 3.34138 
49.4298 95.6498 11.7716 -1.60508 -3.29882 -0.592145 0.412817 -1.53952 0.0195466 0.830397 0.919889 -0.000454014 0.830911 2.56487 -0.0144126 1.67274 20.4529 -1.20126 -1.20961 -2.55695 -0.803204 70.44 1.67805 -0.574375 100.427 19.2541 22.7385 1.96748e-006 -1.63413e-006 7.68102e-007 2.54066 0.0229616 -0.375473 -7.47495e-006 2.2016e-006 -3.07885 8.02999 -4.95139 0.697649 -68.521 0.199582 1.06641 -104.229 18.1812 -21.3997 -1.11941e-006 4.39483e-006 -3.96284e-006 -0.172215 0.719881 -0.422874 7.53683e-007 1.58095e-007 3.00782 -8.03025 -4.95138 -0.697638 176.854 -5.05991 -2.03166 180 7.01503e-015 178.747 177.325 5.6857 179.625 2.08625e-006 -3.52112e-006 0.102783 -19.7725 69.0733 20.4713 8.17149 25.9024 -2.57963 -172.684 -2.13077 -0.638823 4.5067e-006 -1.99009e-005 -1.21637 -1.93767 -9.93669 0.114603 5.31032e-007 -5.43449e-006 -0.27957 22.1941 71.512 -23.0297 -8.13155 25.3378 3.33962 
49.4311 95.6425 11.7827 -1.60491 -3.30096 -0.590503 0.411744 -1.53752 0.0195049 0.828151 0.923218 1.6217e-006 0.828643 2.5682 -0.0139211 1.69307 20.4404 -1.21039 -1.22922 -2.54391 -0.808146 70.4523 1.66644 -0.58154 100.413 19.2618 22.7304 1.96748e-006 -1.63413e-006 7.68102e-007 2.55233 0.0229614 -0.376176 -7.47495e-006 2.2016e-006 -3.07875 8.02999 -4.95139 0.697649 -68.4902 0.198607 1.06335 -104.259 18.1976 -21.4092 -1.11941e-006 4.39483e-006 -3.96284e-006 -0.139654 0.673698 -0.424168 7.53683e-007 1.58095e-007 3.00779 -8.03025 -4.95138 -0.697638 176.853 -5.05911 -2.02557 180 7.01503e-015 178.747 177.319 5.69917 179.626 2.08625e-006 -3.52112e-006 0.102828 -19.7763 69.0777 20.476 8.17156 25.9034 -2.57718 -172.684 -2.12727 -0.637041 4.5067e-006 -1.99009e-005 -1.21637 -1.93395 -9.95096 0.114782 5.31032e-007 -5.43449e-006 -0.280578 22.2002 71.5172 -23.036 -8.1316 25.3385 3.33787 
49.432 95.6001 11.8121 -1.60472 -3.30323 -0.588788 0.410692 -1.5355 0.0194457 0.825943 0.926608 0.000407676 0.826415 2.57159 -0.0134797 1.71278 20.4282 -1.21934 -1.24831 -2.53107 -0.813048 70.4638 1.65503 -0.588521 100.399 19.269 22.7225 1.96748e-006 -1.63413e-006 7.68102e-007 2.56375 0.0229612 -0.376804 -7.47495e-006 2.2016e-006 -3.07864 8.02999 -4.95139 0.697649 -68.4597 0.19769 1.06029 -104.288 18.214 -21.4192 -1.11941e-006 4.39483e-006 -3.96284e-006 -0.106774 0.627963 -0.42544 7.53683e-007 1.58095e-007 3.00776 -8.03025 -4.95138 -0.697638 176.851 -5.05841 -2.01956 180 7.01503e-015 178.747 177.313 5.71285 179.627 2.08625e-006 -3.52112e-006 0.102889 -19.7803 69.0822 20.4809 8.17163 25.9045 -2.57473 -172.684 -2.12398 -0.635277 4.5067e-006 -1.99009e-005 -1.21637 -1.93026 -9.96517 0.114966 5.31032e-007 -5.43449e-006 -0.28157 22.2063 71.5225 -23.0423 -8.13165 25.3393 3.33612 
49.4263 95.6137 11.8107 -1.60451 -3.3057 -0.586958 0.409675 -1.53345 0.0193581 0.823796 0.930095 0.0007344 0.824248 2.57508 -0.0131185 1.73148 20.4163 -1.22801 -1.26657 -2.51854 -0.817885 70.4742 1.64392 -0.595208 100.386 19.2752 22.7147 1.96748e-006 -1.63413e-006 7.68102e-007 2.57476 0.022961 -0.377311 -7.47495e-006 2.2016e-006 -3.07851 8.02999 -4.95139 0.697649 -68.4297 0.196868 1.05723 -104.317 18.2305 -21.4301 -1.11941e-006 4.39483e-006 -3.96284e-006 -0.0733842 0.582948 -0.426677 7.53683e-007 1.58095e-007 3.00774 -8.03025 -4.95138 -0.697638 176.849 -5.05787 -2.01371 180 7.01503e-015 178.747 177.307 5.72684 179.627 2.08625e-006 -3.52112e-006 0.102976 -19.7845 69.087 20.486 8.17171 25.9056 -2.57228 -172.685 -2.12104 -0.633542 4.5067e-006 -1.99009e-005 -1.21637 -1.9266 -9.97927 0.115159 5.31032e-007 -5.43449e-006 -0.282538 22.2125 71.5278 -23.0486 -8.1317 25.3401 3.33439 
49.4283 95.6003 11.8191 -1.60426 -3.30845 -0.584967 0.408705 -1.53135 0.0192318 0.821732 0.933716 0.000952043 0.822168 2.5787 -0.0128677 1.74881 20.4051 -1.23628 -1.28367 -2.50644 -0.822632 70.4831 1.63323 -0.601491 100.375 19.2802 22.7072 1.96748e-006 -1.63413e-006 7.68102e-007 2.58519 0.0229608 -0.377651 -7.47495e-006 2.2016e-006 -3.07837 8.02999 -4.95139 0.697649 -68.4003 0.196177 1.05418 -104.344 18.247 -21.4421 -1.11941e-006 4.39483e-006 -3.96284e-006 -0.0392908 0.538921 -0.427865 7.53683e-007 1.58095e-007 3.00773 -8.03025 -4.95138 -0.697638 176.847 -5.05753 -2.00806 180 7.01503e-015 178.747 177.302 5.74124 179.628 2.08625e-006 -3.52112e-006 0.103097 -19.789 69.0922 20.4915 8.17179 25.9068 -2.56983 -172.685 -2.11856 -0.631847 4.5067e-006 -1.99009e-005 -1.21637 -1.92299 -9.99323 0.115363 5.31032e-007 -5.43449e-006 -0.283471 22.2187 71.5332 -23.0551 -8.13176 25.3409 3.33269 
49.4295 95.6048 11.8269 -1.60396 -3.31156 -0.582774 0.407797 -1.5292 0.0190562 0.819774 0.937507 0.00103086 0.820196 2.58249 -0.0127573 1.76439 20.3946 -1.24404 -1.29932 -2.49489 -0.827266 70.4899 1.62308 -0.60726 100.366 19.2835 22.7 1.96748e-006 -1.63413e-006 7.68102e-007 2.5949 0.0229606 -0.377779 -7.47495e-006 2.2016e-006 -3.0782 8.02999 -4.95139 0.697649 -68.3716 0.195652 1.05113 -104.37 18.2635 -21.4557 -1.11941e-006 4.39483e-006 -3.96284e-006 -0.00430166 0.496153 -0.428991 7.53683e-007 1.58095e-007 3.00773 -8.03025 -4.95138 -0.697638 176.846 -5.05746 -2.00266 180 7.01503e-015 178.747 177.297 5.75621 179.629 2.08625e-006 -3.52112e-006 0.103263 -19.794 69.0979 20.4973 8.17188 25.908 -2.56739 -172.685 -2.11668 -0.630202 4.5067e-006 -1.99009e-005 -1.21637 -1.91945 -10.007 0.115581 5.31032e-007 -5.43449e-006 -0.284362 22.2249 71.5386 -23.0616 -8.13181 25.3417 3.33102 
49.425 95.6016 11.825 -1.60361 -3.3151 -0.580334 0.406962 -1.52697 0.0188206 0.817946 0.941504 0.000941089 0.818357 2.58649 -0.0128174 1.77785 20.385 -1.2512 -1.31319 -2.484 -0.831761 70.4944 1.61359 -0.612404 100.359 19.2849 22.6933 1.96748e-006 -1.63413e-006 7.68102e-007 2.60373 0.0229605 -0.37765 -7.47495e-006 2.2016e-006 -3.078 8.02999 -4.95139 0.697649 -68.3439 0.195328 1.04809 -104.394 18.2801 -21.471 -1.11941e-006 4.39483e-006 -3.96284e-006 0.0317758 0.454912 -0.430042 7.53683e-007 1.58095e-007 3.00774 -8.03025 -4.95138 -0.697638 176.845 -5.05772 -1.99757 180 7.01503e-015 178.747 177.292 5.77184 179.629 2.08625e-006 -3.52112e-006 0.103482 -19.7995 69.1041 20.5037 8.17197 25.9093 -2.56495 -172.686 -2.11552 -0.628619 4.5067e-006 -1.99009e-005 -1.21637 -1.91599 -10.0205 0.115817 5.31032e-007 -5.43449e-006 -0.285201 22.2312 71.5442 -23.0682 -8.13187 25.3426 3.32938 
